HIERARCHY
ROOT Hips
{
	OFFSET 0.000000 0.000000 0.000000
	CHANNELS 6 Xposition Yposition Zposition Xrotation Yrotation Zrotation
	JOINT Spine
	{
		OFFSET 0.000000 0.000000 -0.744707
		CHANNELS 6 Xposition Yposition Zposition Xrotation Yrotation Zrotation
		JOINT Spine1
		{
			OFFSET 0.000000 0.000000 -2.032240
			CHANNELS 6 Xposition Yposition Zposition Xrotation Yrotation Zrotation
			JOINT Neck
			{
				OFFSET 0.000000 0.000000 -2.213880
				CHANNELS 6 Xposition Yposition Zposition Xrotation Yrotation Zrotation
				JOINT Head
				{
					OFFSET 0.000000 0.181636 -1.407680
					CHANNELS 6 Xposition Yposition Zposition Xrotation Yrotation Zrotation
					End Site
					{
						OFFSET 0.000000 0.000000 -1.816356
					}
				}
			}
			JOINT LeftShoulder
			{
				OFFSET 0.365767 -0.048012 -1.787590
				CHANNELS 6 Xposition Yposition Zposition Xrotation Yrotation Zrotation
				JOINT LeftArm
				{
					OFFSET 1.305160 0.000000 0.000000
					CHANNELS 6 Xposition Yposition Zposition Xrotation Yrotation Zrotation
					JOINT LeftForeArm
					{
						OFFSET 2.559210 0.000000 0.000000
						CHANNELS 6 Xposition Yposition Zposition Xrotation Yrotation Zrotation
						JOINT LeftHand
						{
							OFFSET 2.378450 0.000000 0.000000
							CHANNELS 6 Xposition Yposition Zposition Xrotation Yrotation Zrotation
							End Site
							{
								OFFSET 1.362267 0.000000 0.000000
							}
						}
					}
				}
			}
			JOINT RightShoulder
			{
				OFFSET -0.360721 -0.048012 -1.787590
				CHANNELS 6 Xposition Yposition Zposition Xrotation Yrotation Zrotation
				JOINT RightArm
				{
					OFFSET -1.305160 0.000000 0.000000
					CHANNELS 6 Xposition Yposition Zposition Xrotation Yrotation Zrotation
					JOINT RightForeArm
					{
						OFFSET -2.559210 0.000000 0.000000
						CHANNELS 6 Xposition Yposition Zposition Xrotation Yrotation Zrotation
						JOINT RightHand
						{
							OFFSET -2.378450 0.000000 0.000000
							CHANNELS 6 Xposition Yposition Zposition Xrotation Yrotation Zrotation
							End Site
							{
								OFFSET -1.362267 0.000000 0.000000
							}
						}
					}
				}
			}
		}
	}
	JOINT LeftUpLeg
	{
		OFFSET 0.908180 0.000000 0.000000
		CHANNELS 6 Xposition Yposition Zposition Xrotation Yrotation Zrotation
		JOINT LeftLeg
		{
			OFFSET 0.000000 -0.000003 3.819490
			CHANNELS 6 Xposition Yposition Zposition Xrotation Yrotation Zrotation
			JOINT LeftFoot
			{
				OFFSET 0.000000 -0.000003 4.004300
				CHANNELS 6 Xposition Yposition Zposition Xrotation Yrotation Zrotation
				JOINT LeftToeBase
				{
					OFFSET 0.000000 1.362270 0.590317
					CHANNELS 6 Xposition Yposition Zposition Xrotation Yrotation Zrotation
					End Site
					{
						OFFSET 0.000000 0.363271 0.000000
					}
				}
			}
		}
	}
	JOINT RightUpLeg
	{
		OFFSET -0.908180 0.000000 0.000000
		CHANNELS 6 Xposition Yposition Zposition Xrotation Yrotation Zrotation
		JOINT RightLeg
		{
			OFFSET 0.000000 -0.000003 3.819490
			CHANNELS 6 Xposition Yposition Zposition Xrotation Yrotation Zrotation
			JOINT RightFoot
			{
				OFFSET 0.000000 -0.000003 4.004300
				CHANNELS 6 Xposition Yposition Zposition Xrotation Yrotation Zrotation
				JOINT RightToeBase
				{
					OFFSET 0.000000 1.362270 0.590317
					CHANNELS 6 Xposition Yposition Zposition Xrotation Yrotation Zrotation
					End Site
					{
						OFFSET 0.000000 0.363271 0.000000
					}
				}
			}
		}
	}
}
MOTION
Frames: 4
Frame Time: 0.016667
-1.660254 1.982770 -7.952991 7.409487 -0.327802 2.552920 -0.000000 -0.000000 -0.744707 -22.171288 -1.481862 -10.763973 0.000000 -0.000000 -2.032238 21.814157 9.159979 -5.262073 0.000000 0.000000 -2.213882 0.191674 7.031577 2.261838 -0.000000 0.181636 -1.407679 7.400004 -1.256574 1.330291 0.365767 -0.048012 -1.787592 -2.828900 13.429670 -0.728594 1.305159 -0.000000 0.000002 17.303900 -46.352983 19.255446 2.559211 -0.000000 0.000001 -32.169252 -0.671720 75.725679 2.378450 0.000001 0.000001 -29.446670 20.632446 -17.685795 -0.360721 -0.048012 -1.787590 -5.516664 -7.304279 -7.929208 -1.305160 -0.000000 0.000001 19.802822 41.756409 -50.299634 -2.559211 0.000001 0.000001 -62.046395 -27.505781 -117.515973 -2.378449 -0.000000 0.000001 -17.445881 -56.783751 1.190266 0.908180 -0.000000 0.000001 -9.015756 1.218062 -1.871343 -0.000000 -0.000002 3.819489 10.694620 2.355007 -4.944517 -0.000001 -0.000001 4.004299 -3.773388 3.325472 -21.983032 0.000000 1.362270 0.590316 0.000004 0.000001 0.000000 -0.908180 0.000000 0.000002 -20.909586 -16.836293 -7.042751 -0.000001 -0.000001 3.819487 22.072970 5.227079 -15.487850 0.000001 -0.000000 4.004299 -1.420868 3.174342 47.938547 -0.000001 1.362269 0.590318 0.000005 -0.000003 0.000005 
-1.642591 1.976746 -7.954000 7.390242 -0.330102 2.705469 0.000000 -0.000000 -0.744706 -22.100564 -1.400848 -10.607326 0.000000 0.000001 -2.032237 21.709232 8.983754 -5.172545 0.000000 0.000001 -2.213881 0.436323 7.219775 2.016971 -0.000000 0.181636 -1.407681 7.214297 -1.517872 1.049572 0.365767 -0.048012 -1.787592 -3.125086 13.350392 -0.385535 1.305161 0.000000 0.000003 14.268413 -46.544167 17.854126 2.559211 -0.000000 0.000002 -32.948535 -0.095499 75.582860 2.378450 0.000001 0.000001 -29.327497 23.583081 -17.565501 -0.360721 -0.048012 -1.787591 -5.327886 -7.264618 -7.810369 -1.305161 -0.000000 0.000000 20.143847 42.254952 -50.596522 -2.559210 -0.000001 0.000000 -61.595944 -27.638816 -117.445526 -2.378449 -0.000002 0.000000 -16.668612 -56.916257 1.522845 0.908180 -0.000000 0.000001 -9.098614 1.126944 -1.910056 -0.000000 -0.000001 3.819490 10.842110 2.316428 -5.266493 -0.000001 -0.000002 4.004299 -3.819881 3.369775 -21.777218 0.000000 1.362270 0.590316 0.000001 -0.000001 -0.000005 -0.908180 -0.000000 0.000002 -21.136505 -16.653111 -7.442633 -0.000000 -0.000002 3.819490 22.506923 5.501647 -15.033410 0.000001 -0.000001 4.004299 -2.068774 2.562222 48.031967 -0.000001 1.362270 0.590316 0.000004 -0.000000 0.000004 
-1.626782 1.970096 -7.955175 7.338953 -0.348811 2.833969 0.000000 0.000000 -0.744704 -21.989073 -1.346916 -10.403341 0.000000 -0.000000 -2.032238 21.615401 8.844707 -5.073966 0.000000 0.000000 -2.213880 0.691414 7.350498 1.736850 0.000000 0.181636 -1.407677 6.998696 -1.740431 0.742599 0.365767 -0.048012 -1.787588 -3.524051 13.291605 -0.006667 1.305160 0.000000 0.000000 11.727932 -46.589407 16.649457 2.559211 0.000000 -0.000001 -33.898202 0.504146 75.483323 2.378449 0.000002 0.000000 -29.366938 26.563171 -17.415514 -0.360721 -0.048012 -1.787592 -5.196826 -7.248184 -7.749621 -1.305160 -0.000000 -0.000001 20.797166 42.531960 -51.015957 -2.559211 0.000001 -0.000001 -61.443316 -27.912106 -117.379273 -2.378451 0.000001 0.000003 -15.964276 -57.156048 1.872050 0.908180 0.000000 0.000002 -9.182197 1.161157 -1.791047 -0.000000 -0.000003 3.819491 11.060978 2.078184 -5.239290 -0.000001 -0.000001 4.004301 -3.877729 3.526701 -21.985044 0.000000 1.362270 0.590316 0.000001 0.000000 0.000007 -0.908180 -0.000000 0.000001 -21.292270 -16.432252 -7.855888 -0.000000 -0.000002 3.819488 22.884270 5.761092 -14.458071 0.000002 -0.000001 4.004301 -2.670853 2.213540 47.989394 -0.000000 1.362270 0.590316 0.000005 0.000001 -0.000003 
-1.611688 1.964398 -7.956424 7.296593 -0.371484 2.947488 -0.000000 0.000000 -0.744706 -21.895735 -1.283962 -10.164798 0.000000 0.000001 -2.032242 21.517809 8.691586 -4.961572 -0.000000 0.000002 -2.213879 0.968005 7.512623 1.438946 0.000000 0.181636 -1.407683 6.787472 -2.046726 0.408655 0.365767 -0.048012 -1.787589 -3.817671 13.228390 0.296769 1.305160 -0.000000 0.000001 9.076271 -46.440584 15.430212 2.559211 -0.000000 -0.000001 -34.616724 0.936280 75.295193 2.378449 -0.000000 -0.000001 -29.287397 29.623019 -17.300842 -0.360721 -0.048012 -1.787591 -4.978405 -7.234179 -7.650718 -1.305160 -0.000000 0.000001 21.375499 42.777321 -51.459270 -2.559211 0.000000 0.000000 -61.121901 -28.112621 -117.203765 -2.378448 0.000000 0.000001 -15.418763 -57.414932 1.976950 0.908180 -0.000000 0.000002 -9.276594 1.180466 -1.804927 -0.000000 -0.000003 3.819490 11.276047 1.900066 -5.199586 -0.000001 -0.000002 4.004300 -3.932233 3.631835 -22.098319 0.000000 1.362270 0.590316 0.000006 0.000001 0.000001 -0.908180 0.000000 0.000000 -21.397912 -16.212041 -8.243451 -0.000001 -0.000002 3.819488 23.197626 5.928873 -14.305090 0.000001 -0.000001 4.004302 -3.074050 1.835341 47.967869 -0.000000 1.362271 0.590316 0.000004 -0.000000 0.000004 
